<?xml version="1.0" encoding="UTF-8"?>
<svg id="Layer_1" data-name="Layer 1" xmlns="http://www.w3.org/2000/svg" viewBox="0 0 300.81 242.93">
  <defs>
    <style>
      .cls-1 {
        fill: #1d71b8;
      }

      .cls-1, .cls-2 {
        stroke-width: 0px;
      }

      .cls-2 {
        fill: #fff;
      }
    </style>
  </defs>
  <polygon class="cls-1" points="300.81 242.93 0 225.78 0 0 284.02 0 300.81 242.93"/>
  <g>
    <path class="cls-2" d="M17,64.64l9.52-48.63,15.53,35.16,16.08-35.16,8.55,48.63h-7l-4.37-27.3-13.39,29.38-13.01-29.41-4.86,27.33h-7.06Z"/>
    <path class="cls-2" d="M102.84,53.65h-19.37l-5.04,10.99h-7.35l22.38-48.08,21.59,48.08h-7.47l-4.75-10.99ZM100.05,47.23l-6.71-15.38-7.03,15.38h13.74Z"/>
    <path class="cls-2" d="M136.03,45.36l14,19.28h-8.35l-12.92-18.52h-1.23v18.52h-6.83V19.4h8c5.98,0,10.29,1.12,12.95,3.37,2.93,2.5,4.39,5.8,4.39,9.9,0,3.2-.92,5.96-2.75,8.26-1.84,2.3-4.26,3.78-7.27,4.42ZM127.53,40.17h2.17c6.46,0,9.7-2.47,9.7-7.41,0-4.63-3.15-6.94-9.43-6.94h-2.43v14.36Z"/>
    <path class="cls-2" d="M189.23,21.83v8.09c-3.95-3.3-8.03-4.95-12.25-4.95-4.65,0-8.56,1.67-11.75,5.01-3.2,3.32-4.8,7.38-4.8,12.19s1.6,8.75,4.8,12.01c3.2,3.26,7.13,4.89,11.78,4.89,2.4,0,4.44-.39,6.12-1.17.94-.39,1.91-.92,2.92-1.58,1.01-.66,2.07-1.46,3.18-2.4v8.23c-3.91,2.21-8.01,3.31-12.3,3.31-6.46,0-11.98-2.26-16.55-6.77-4.55-4.55-6.83-10.04-6.83-16.46,0-5.76,1.9-10.9,5.71-15.41,4.69-5.53,10.75-8.29,18.19-8.29,4.06,0,7.99,1.1,11.78,3.31Z"/>
    <path class="cls-2" d="M204.67,19.4v27.25c0,3.89.63,6.73,1.9,8.53,1.89,2.6,4.56,3.9,8,3.9s6.13-1.3,8.03-3.9c1.27-1.74,1.9-4.58,1.9-8.53v-27.25h6.83v29.12c0,4.77-1.48,8.69-4.45,11.78-3.34,3.44-7.44,5.16-12.3,5.16s-8.96-1.72-12.28-5.16c-2.97-3.09-4.45-7.01-4.45-11.78v-29.12h6.83Z"/>
    <path class="cls-2" d="M267.75,26.14l-5.54,3.28c-1.04-1.8-2.02-2.97-2.96-3.52-.98-.62-2.24-.94-3.78-.94-1.89,0-3.47.54-4.72,1.61-1.25,1.05-1.88,2.38-1.88,3.98,0,2.21,1.64,3.98,4.92,5.33l4.51,1.85c3.67,1.48,6.36,3.3,8.06,5.43s2.55,4.76,2.55,7.87c0,4.16-1.39,7.6-4.16,10.31-2.79,2.74-6.26,4.1-10.4,4.1-3.93,0-7.17-1.16-9.73-3.49-2.52-2.32-4.09-5.6-4.72-9.81l6.91-1.52c.31,2.66.86,4.49,1.64,5.51,1.41,1.95,3.46,2.93,6.15,2.93,2.13,0,3.9-.71,5.3-2.14,1.41-1.42,2.11-3.23,2.11-5.42,0-.88-.12-1.68-.37-2.42s-.62-1.41-1.14-2.02-1.19-1.19-2.01-1.73-1.8-1.05-2.93-1.54l-4.37-1.82c-6.19-2.62-9.29-6.45-9.29-11.48,0-3.4,1.3-6.24,3.9-8.53,2.6-2.3,5.83-3.46,9.7-3.46,5.21,0,9.29,2.54,12.22,7.62Z"/>
    <path class="cls-2" d="M32.41,91.4v38.82h13.3v6.42h-20.13v-45.23h6.83Z"/>
    <path class="cls-2" d="M77.14,97.82h-18.13v10.87h17.61v6.42h-17.61v15.12h18.13v6.42h-24.96v-45.23h24.96v6.42Z"/>
    <path class="cls-2" d="M83.85,113.81c0-6.37,2.33-11.84,7-16.41,4.65-4.57,10.23-6.86,16.76-6.86s11.97,2.3,16.58,6.91c4.63,4.61,6.94,10.15,6.94,16.61s-2.32,12.02-6.97,16.55c-4.67,4.55-10.3,6.83-16.9,6.83-5.84,0-11.08-2.02-15.73-6.06-5.12-4.47-7.68-10.33-7.68-17.58ZM90.74,113.9c0,5,1.68,9.11,5.04,12.33,3.34,3.22,7.2,4.83,11.57,4.83,4.75,0,8.75-1.64,12.01-4.92,3.26-3.32,4.89-7.36,4.89-12.13s-1.61-8.87-4.83-12.13c-3.2-3.28-7.17-4.92-11.89-4.92s-8.68,1.64-11.92,4.92c-3.24,3.24-4.86,7.25-4.86,12.01Z"/>
    <path class="cls-2" d="M139.72,136.64v-48.31l32.99,34.51v-31.44h6.83v47.99l-32.99-34.42v31.67h-6.83Z"/>
    <path class="cls-2" d="M217.3,125.65h-19.37l-5.04,10.99h-7.35l22.38-48.08,21.59,48.08h-7.47l-4.75-10.99ZM214.52,119.23l-6.71-15.38-7.03,15.38h13.74Z"/>
    <path class="cls-2" d="M260.75,98.14l-5.54,3.28c-1.04-1.8-2.02-2.97-2.96-3.52-.98-.62-2.24-.94-3.78-.94-1.89,0-3.47.54-4.72,1.61-1.25,1.05-1.88,2.38-1.88,3.98,0,2.21,1.64,3.98,4.92,5.33l4.51,1.85c3.67,1.48,6.36,3.3,8.06,5.43s2.55,4.76,2.55,7.87c0,4.16-1.39,7.6-4.16,10.31-2.79,2.74-6.26,4.1-10.4,4.1-3.93,0-7.17-1.16-9.73-3.49-2.52-2.32-4.09-5.6-4.72-9.81l6.91-1.52c.31,2.66.86,4.49,1.64,5.51,1.41,1.95,3.46,2.93,6.15,2.93,2.13,0,3.9-.71,5.3-2.14,1.41-1.42,2.11-3.23,2.11-5.42,0-.88-.12-1.68-.37-2.42s-.62-1.41-1.14-2.02-1.19-1.19-2.01-1.73-1.8-1.05-2.93-1.54l-4.37-1.82c-6.19-2.62-9.29-6.45-9.29-11.48,0-3.4,1.3-6.24,3.9-8.53,2.6-2.3,5.83-3.46,9.7-3.46,5.21,0,9.29,2.54,12.22,7.62Z"/>
    <path class="cls-2" d="M37.96,181.1h19.51v-17.7h6.83v45.23h-6.83v-21.12h-19.51v21.12h-6.83v-45.23h6.83v17.7Z"/>
    <path class="cls-2" d="M101.71,197.65h-19.37l-5.04,10.99h-7.35l22.38-48.08,21.59,48.08h-7.47l-4.75-10.99ZM98.92,191.23l-6.71-15.38-7.03,15.38h13.74Z"/>
    <path class="cls-2" d="M134.9,189.36l14,19.28h-8.35l-12.92-18.52h-1.23v18.52h-6.83v-45.23h8c5.98,0,10.29,1.12,12.95,3.37,2.93,2.5,4.39,5.8,4.39,9.9,0,3.2-.92,5.96-2.75,8.26-1.84,2.3-4.26,3.78-7.27,4.42ZM126.41,184.17h2.17c6.46,0,9.7-2.47,9.7-7.41,0-4.63-3.15-6.94-9.43-6.94h-2.43v14.36Z"/>
    <path class="cls-2" d="M156.38,163.4l12.51,31.35,12.69-31.35h7.47l-20.3,48.63-19.83-48.63h7.47Z"/>
    <path class="cls-2" d="M219.63,169.82h-18.13v10.87h17.61v6.42h-17.61v15.12h18.13v6.42h-24.96v-45.23h24.96v6.42Z"/>
    <path class="cls-2" d="M237.73,189.1l-14.77-25.69h7.85l10.34,18.08,10.37-18.08h7.85l-14.82,25.69v19.54h-6.83v-19.54Z"/>
  </g>
</svg>